# xmcd
#
# Track frame offsets:
#	150
#	15533
#	39320
#	70209
#	89587
#	109777
#	131334
#	151902
#	177337
#	196994
#	218408
#	246703
#
# Disc length: 3585 seconds
#
# Revision: 0
# Processed by: cddbd v1.5.2PL0 Copyright (c) Steve Scherf et al.
# Submitted via: audiograbber 1.83.01
#
DISCID=9f0dff0c
DTITLE=Barbara Zeller - Live-CD Bad Imnauer Kunstsommer 7.7.2013
DYEAR=2013
DGENRE=Singer/Songwriter
TTITLE0=Allegria
TTITLE1=Give it back
TTITLE2=Was ist mit
TTITLE3=Ein schöner Tag
TTITLE4=Lied einer dramatischen Ente
TTITLE5=Sommer ich komme
TTITLE6=Aber Mir
TTITLE7=Ganz lang
TTITLE8=By my side
TTITLE9=Ich will
TTITLE10=Your only family
TTITLE11=Angels as we
EXTD=
EXTT0=
EXTT1=
EXTT2=
EXTT3=
EXTT4=
EXTT5=
EXTT6=
EXTT7=
EXTT8=
EXTT9=
EXTT10=
EXTT11=
PLAYORDER=
